<svg width="21" height="22" viewBox="0 0 21 22" fill="none" xmlns="http://www.w3.org/2000/svg">
<g clip-path="url(#clip0_649_1307)">
<path fill-rule="evenodd" clip-rule="evenodd" d="M16.3337 1.80078H15.4587V7.20508H17.2087C17.4408 7.20508 17.6638 7.29985 17.8279 7.46875C17.9919 7.63762 18.0837 7.86671 18.0837 8.10547V8.95508C17.0365 8.41314 15.8465 8.10553 14.5837 8.10547C14.2879 8.10547 13.9958 8.12353 13.7087 8.15625V1.80078H4.95874V14.4102H7.10132C7.03592 14.8078 6.99976 15.2158 6.99976 15.6318C6.99976 15.8267 7.0095 16.0198 7.02417 16.2109H0.58374V8.10547C0.58376 7.86664 0.675524 7.63763 0.8396 7.46875C1.0037 7.29985 1.22667 7.20508 1.45874 7.20508H3.20874V1.80078H2.33374V0H16.3337V1.80078ZM8.76245 10.8076C8.27833 11.3824 7.87913 12.03 7.58374 12.7314V10.8076H8.76245ZM8.45874 9.00586H6.70874V7.20508H8.45874V9.00586ZM11.9587 8.56836C11.6219 8.69168 11.2965 8.83836 10.9841 9.00586H10.2087V7.20508H11.9587V8.56836ZM8.45874 5.40332H6.70874V3.60254H8.45874V5.40332ZM11.9587 5.40332H10.2087V3.60254H11.9587V5.40332Z" fill="white"/>
<ellipse cx="14.5834" cy="15.6301" rx="6.41667" ry="6.36842" fill="white"/>
<path d="M14.5 13C14.7379 13 14.931 13.1931 14.931 13.431V15.069H16.569C16.6833 15.069 16.7929 15.1144 16.8738 15.1952C16.9546 15.276 17 15.3857 17 15.5C17 15.6143 16.9546 15.724 16.8738 15.8048C16.7929 15.8856 16.6833 15.931 16.569 15.931H14.931V17.569C14.931 17.6833 14.8856 17.7929 14.8048 17.8738C14.724 17.9546 14.6143 18 14.5 18C14.3857 18 14.276 17.9546 14.1952 17.8738C14.1144 17.7929 14.069 17.6833 14.069 17.569V15.931H12.431C12.3167 15.931 12.2071 15.8856 12.1262 15.8048C12.0454 15.724 12 15.6143 12 15.5C12 15.3857 12.0454 15.276 12.1262 15.1952C12.2071 15.1144 12.3167 15.069 12.431 15.069H14.069V13.431C14.069 13.1931 14.2621 13 14.5 13Z" fill="#00A0E3"/>
</g>
<defs>
<clipPath id="clip0_649_1307">
<rect width="21" height="22" fill="white"/>
</clipPath>
</defs>
</svg>
