<svg width="20" height="18" viewBox="0 0 20 18" fill="none" xmlns="http://www.w3.org/2000/svg">
<g clip-path="url(#clip0_649_1410)">
<path d="M18.229 7.71429H16.354V1.92857H17.2915V0H2.2915V1.92857H3.229V7.71429H1.354C1.10536 7.71429 0.866907 7.81588 0.691091 7.99672C0.515276 8.17756 0.416504 8.42283 0.416504 8.67857V17.3571H19.1665V8.67857C19.1665 8.42283 19.0677 8.17756 18.8919 7.99672C18.7161 7.81588 18.4776 7.71429 18.229 7.71429ZM11.6665 15.4286V11.5714H7.9165V15.4286H5.104V1.92857H14.479V15.4286H11.6665Z" fill="#808080"/>
<path d="M6.979 3.85742H8.854V5.78599H6.979V3.85742ZM10.729 3.85742H12.604V5.78599H10.729V3.85742ZM6.979 7.71456H8.854V9.64314H6.979V7.71456ZM10.729 7.71456H12.604V9.64314H10.729V7.71456Z" fill="#808080"/>
</g>
<defs>
<clipPath id="clip0_649_1410">
<rect width="20" height="18" fill="white"/>
</clipPath>
</defs>
</svg>
