<svg width="14" height="16" viewBox="0 0 14 16" fill="none" xmlns="http://www.w3.org/2000/svg">
<path d="M6.52229 14.824L6.18416 14.5135C4.50953 12.9762 3.2464 11.5609 2.41293 10.268L6.52229 14.824ZM6.52229 14.824L6.86043 14.5135M6.52229 14.824L6.86043 14.5135M6.86043 14.5135C8.53506 12.9762 9.79819 11.5609 10.6317 10.268C11.4597 8.98415 11.914 7.78471 11.914 6.68535C11.914 5.08743 11.3996 3.74219 10.3506 2.69317C9.30984 1.65242 8.02316 1.13057 6.52229 1.13057C5.02143 1.13057 3.73454 1.65241 2.69327 2.69307L2.69307 2.69327M6.86043 14.5135L2.69307 2.69327M2.69307 2.69327C1.64463 3.74232 1.13057 5.08752 1.13057 6.68535M2.69307 2.69327L1.13057 6.68535M1.13057 6.68535C1.13057 7.78469 1.58487 8.9841 2.41288 10.268L1.13057 6.68535ZM2.30623 2.1816L2.30631 2.18153C3.52836 1.05422 4.92682 0.5 6.52229 0.5C8.11777 0.5 9.51623 1.05422 10.7383 2.18153L10.7384 2.1816C11.9322 3.28238 12.5446 4.76487 12.5446 6.68535C12.5446 7.86294 12.1027 9.17177 11.1582 10.6217C10.2141 12.0703 8.77048 13.6617 6.80921 15.3953C6.77526 15.4228 6.73134 15.4488 6.67284 15.4707C6.61643 15.4918 6.56707 15.5 6.52229 15.5C6.47752 15.5 6.42815 15.4918 6.37174 15.4707C6.31325 15.4488 6.26932 15.4228 6.23537 15.3953C4.27411 13.6617 2.83047 12.0703 1.88641 10.6217C0.941857 9.17177 0.5 7.86294 0.5 6.68535C0.5 4.76487 1.11244 3.28238 2.30623 2.1816Z" fill="#A0A0A0" stroke="#83878C"/>
<circle cx="6.52217" cy="5.70699" r="1.13057" fill="#A0A0A0" stroke="#83878C"/>
</svg>
