<svg width="18" height="18" viewBox="0 0 18 18" fill="none" xmlns="http://www.w3.org/2000/svg">
<rect width="18" height="18" rx="9" fill="#0A2540"/>
<path d="M7.12292 4.05323C7.40964 3.97075 7.71733 3.98445 7.99475 4.09205C8.27218 4.19966 8.5026 4.39467 8.64768 4.64463L8.69617 4.73778L9.12994 5.65739C9.26133 5.93657 9.30392 6.2464 9.25244 6.54846C9.20095 6.85052 9.05766 7.13151 8.84032 7.35658L8.75317 7.4391L8.06975 8.04738C7.94656 8.15866 8.03895 8.5894 8.48452 9.32584C8.88553 9.98851 9.21185 10.298 9.37238 10.3148H9.40056L9.43529 10.3086L10.7785 9.91661C10.9591 9.86379 11.1517 9.8617 11.3335 9.91059C11.5152 9.95948 11.6783 10.0573 11.8034 10.1923L11.863 10.2642L12.7521 11.4395C12.9264 11.6699 13.0132 11.95 12.9984 12.2337C12.9835 12.5175 12.8677 12.7879 12.6702 13.0005L12.5903 13.0793L12.2352 13.4006C11.9162 13.6888 11.5173 13.8835 11.0858 13.9616C10.6543 14.0398 10.2083 13.998 9.80091 13.8414C8.53301 13.3537 7.38108 12.2397 6.33465 10.5105C5.28626 8.77695 4.85052 7.26593 5.04513 5.97185C5.10402 5.58066 5.27285 5.212 5.5337 4.90501C5.79455 4.59802 6.13768 4.36416 6.52664 4.22827L6.6531 4.18826L7.12292 4.05323Z" fill="white"/>
</svg>
