<svg width="37" height="38" viewBox="0 0 37 38" fill="none" xmlns="http://www.w3.org/2000/svg">
<g clip-path="url(#clip0_135_1447)">
<path d="M2.66699 21.8627C2.66699 16.8347 2.66699 14.32 4.22966 12.7587C5.79233 11.1974 8.30566 11.196 13.3337 11.196H18.667C23.695 11.196 26.2097 11.196 27.771 12.7587C29.3323 14.3214 29.3337 16.8347 29.3337 21.8627V24.5294C29.3337 29.5574 29.3337 32.072 27.771 33.6334C26.2083 35.1947 23.695 35.196 18.667 35.196H13.3337C8.30566 35.196 5.79099 35.196 4.22966 33.6334C2.66833 32.0707 2.66699 29.5574 2.66699 24.5294V21.8627Z" stroke="#DB0D27" stroke-width="2"/>
<path d="M9.33398 11.196V9.19604M22.6673 11.196V9.19604M3.33398 17.8627H28.6673" stroke="#DB0D27" stroke-width="2" stroke-linecap="round"/>
<path d="M24 28.5295C24 28.8831 23.8595 29.2222 23.6095 29.4723C23.3594 29.7223 23.0203 29.8628 22.6667 29.8628C22.313 29.8628 21.9739 29.7223 21.7239 29.4723C21.4738 29.2222 21.3333 28.8831 21.3333 28.5295C21.3333 28.1758 21.4738 27.8367 21.7239 27.5866C21.9739 27.3366 22.313 27.1961 22.6667 27.1961C23.0203 27.1961 23.3594 27.3366 23.6095 27.5866C23.8595 27.8367 24 28.1758 24 28.5295ZM24 23.1961C24 23.5497 23.8595 23.8889 23.6095 24.1389C23.3594 24.389 23.0203 24.5295 22.6667 24.5295C22.313 24.5295 21.9739 24.389 21.7239 24.1389C21.4738 23.8889 21.3333 23.5497 21.3333 23.1961C21.3333 22.8425 21.4738 22.5034 21.7239 22.2533C21.9739 22.0033 22.313 21.8628 22.6667 21.8628C23.0203 21.8628 23.3594 22.0033 23.6095 22.2533C23.8595 22.5034 24 22.8425 24 23.1961ZM17.3333 28.5295C17.3333 28.8831 17.1929 29.2222 16.9428 29.4723C16.6928 29.7223 16.3536 29.8628 16 29.8628C15.6464 29.8628 15.3072 29.7223 15.0572 29.4723C14.8071 29.2222 14.6667 28.8831 14.6667 28.5295C14.6667 28.1758 14.8071 27.8367 15.0572 27.5866C15.3072 27.3366 15.6464 27.1961 16 27.1961C16.3536 27.1961 16.6928 27.3366 16.9428 27.5866C17.1929 27.8367 17.3333 28.1758 17.3333 28.5295ZM17.3333 23.1961C17.3333 23.5497 17.1929 23.8889 16.9428 24.1389C16.6928 24.389 16.3536 24.5295 16 24.5295C15.6464 24.5295 15.3072 24.389 15.0572 24.1389C14.8071 23.8889 14.6667 23.5497 14.6667 23.1961C14.6667 22.8425 14.8071 22.5034 15.0572 22.2533C15.3072 22.0033 15.6464 21.8628 16 21.8628C16.3536 21.8628 16.6928 22.0033 16.9428 22.2533C17.1929 22.5034 17.3333 22.8425 17.3333 23.1961ZM10.6667 28.5295C10.6667 28.8831 10.5262 29.2222 10.2761 29.4723C10.0261 29.7223 9.68696 29.8628 9.33333 29.8628C8.97971 29.8628 8.64057 29.7223 8.39052 29.4723C8.14048 29.2222 8 28.8831 8 28.5295C8 28.1758 8.14048 27.8367 8.39052 27.5866C8.64057 27.3366 8.97971 27.1961 9.33333 27.1961C9.68696 27.1961 10.0261 27.3366 10.2761 27.5866C10.5262 27.8367 10.6667 28.1758 10.6667 28.5295ZM10.6667 23.1961C10.6667 23.5497 10.5262 23.8889 10.2761 24.1389C10.0261 24.389 9.68696 24.5295 9.33333 24.5295C8.97971 24.5295 8.64057 24.389 8.39052 24.1389C8.14048 23.8889 8 23.5497 8 23.1961C8 22.8425 8.14048 22.5034 8.39052 22.2533C8.64057 22.0033 8.97971 21.8628 9.33333 21.8628C9.68696 21.8628 10.0261 22.0033 10.2761 22.2533C10.5262 22.5034 10.6667 22.8425 10.6667 23.1961Z" fill="#DB0D27"/>
<rect x="18" y="5.86279" width="17" height="15" fill="#FBE7E9"/>
</g>
<path d="M21.0194 3.45103H33.0979H21.0194ZM21.0194 3.45103L21.4508 18.1177H32.6665L33.0979 3.45103M21.0194 3.45103H19.2939H21.0194ZM33.0979 3.45103H34.8234H33.0979ZM24.039 0.862793H30.0783V3.45103H24.039V0.862793ZM29.4994 8.34452L27.0587 10.7844L29.4994 8.34452ZM27.0587 10.7844L24.6188 13.2242L27.0587 10.7844ZM27.0587 10.7844L24.6188 8.34452L27.0587 10.7844ZM27.0587 10.7844L29.4994 13.2242L27.0587 10.7844Z" fill="#FBE7E9"/>
<path d="M21.0194 3.45103H33.0979M21.0194 3.45103L21.4508 18.1177H32.6665L33.0979 3.45103M21.0194 3.45103H19.2939M33.0979 3.45103H34.8234M29.4994 8.34452L27.0587 10.7844M27.0587 10.7844L24.6188 13.2242M27.0587 10.7844L24.6188 8.34452M27.0587 10.7844L29.4994 13.2242M24.039 0.862793H30.0783V3.45103H24.039V0.862793Z" stroke="#DB0D27" stroke-width="1.72549" stroke-linecap="square"/>
<defs>
<clipPath id="clip0_135_1447">
<rect width="32" height="32" fill="white" transform="translate(0 5.86279)"/>
</clipPath>
</defs>
</svg>
