<svg width="17" height="15" viewBox="0 0 17 15" fill="none" xmlns="http://www.w3.org/2000/svg">
<path d="M2.782 0H9.71801C10.175 0 10.572 2.10479e-07 10.883 0.0300002C11.19 0.0580002 11.568 0.125 11.876 0.378C12.273 0.704 12.497 1.192 12.5 1.7C12.502 2.09 12.328 2.426 12.16 2.692C11.992 2.962 11.749 3.282 11.465 3.656L11.434 3.696L11.424 3.709L8.86901 7.078C8.61701 7.41 8.554 7.498 8.51 7.588C8.46418 7.68225 8.43089 7.7821 8.41101 7.885C8.391 7.985 8.388 8.097 8.388 8.519V12.762C8.388 12.97 8.388 13.174 8.374 13.34C8.359 13.504 8.322 13.767 8.15 14.003C7.94 14.29 7.613 14.476 7.25 14.498C6.948 14.517 6.703 14.395 6.56 14.315C6.416 14.235 6.251 14.12 6.084 14.005L5.095 13.322L5.047 13.289C4.856 13.158 4.644 13.013 4.485 12.812C4.34682 12.6386 4.24389 12.4399 4.182 12.227C4.111 11.983 4.112 11.727 4.112 11.489V8.519C4.112 8.097 4.108 7.985 4.089 7.885C4.0688 7.78205 4.03518 7.6822 3.989 7.588C3.946 7.498 3.883 7.41 3.631 7.078L1.075 3.709L1.065 3.697L1.035 3.657C0.751004 3.282 0.508005 2.962 0.339005 2.692C0.172005 2.426 -0.000995685 2.09 4.31462e-06 1.7C0.00053186 1.44734 0.0567177 1.1979 0.164567 0.969408C0.272416 0.74092 0.42928 0.538998 0.624004 0.378C0.932004 0.125 1.31 0.0579998 1.617 0.0289998C1.928 -1.93715e-07 2.324 0 2.782 0ZM3.179 4L4.826 6.17L4.861 6.217C5.062 6.481 5.222 6.692 5.339 6.932C5.44167 7.14333 5.51567 7.365 5.561 7.597C5.612 7.858 5.611 8.124 5.611 8.461V11.429C5.611 11.587 5.612 11.676 5.616 11.743L5.622 11.805C5.62887 11.8315 5.64113 11.8564 5.658 11.878L5.699 11.912C5.749 11.952 5.819 12 5.947 12.088L6.888 12.738V8.46C6.888 8.123 6.888 7.857 6.939 7.596C6.98434 7.36467 7.05834 7.143 7.161 6.931C7.278 6.691 7.438 6.481 7.639 6.216L7.674 6.17L9.32 4H3.179ZM10.459 2.5C10.654 2.24 10.793 2.05 10.889 1.896C10.969 1.77 10.993 1.708 10.999 1.689C10.9958 1.63916 10.9757 1.5919 10.942 1.555C10.8766 1.53759 10.8096 1.52687 10.742 1.523C10.51 1.501 10.186 1.5 9.682 1.5H2.818C2.314 1.5 1.99 1.5 1.758 1.523C1.69043 1.52687 1.62342 1.53759 1.558 1.555C1.52434 1.5919 1.50424 1.63916 1.501 1.689C1.507 1.708 1.531 1.77 1.611 1.896C1.707 2.051 1.846 2.24 2.041 2.5H10.459ZM12 5.75C12 5.55109 12.079 5.36032 12.2197 5.21967C12.3603 5.07902 12.5511 5 12.75 5H15.75C15.9489 5 16.1397 5.07902 16.2803 5.21967C16.421 5.36032 16.5 5.55109 16.5 5.75C16.5 5.94891 16.421 6.13968 16.2803 6.28033C16.1397 6.42098 15.9489 6.5 15.75 6.5H12.75C12.5511 6.5 12.3603 6.42098 12.2197 6.28033C12.079 6.13968 12 5.94891 12 5.75ZM10.5 8.25C10.5 8.05109 10.579 7.86032 10.7197 7.71967C10.8603 7.57902 11.0511 7.5 11.25 7.5H15.75C15.9489 7.5 16.1397 7.57902 16.2803 7.71967C16.421 7.86032 16.5 8.05109 16.5 8.25C16.5 8.44891 16.421 8.63968 16.2803 8.78033C16.1397 8.92098 15.9489 9 15.75 9H11.25C11.0511 9 10.8603 8.92098 10.7197 8.78033C10.579 8.63968 10.5 8.44891 10.5 8.25ZM10 10.75C10 10.5511 10.079 10.3603 10.2197 10.2197C10.3603 10.079 10.5511 10 10.75 10H15.75C15.9489 10 16.1397 10.079 16.2803 10.2197C16.421 10.3603 16.5 10.5511 16.5 10.75C16.5 10.9489 16.421 11.1397 16.2803 11.2803C16.1397 11.421 15.9489 11.5 15.75 11.5H10.75C10.5511 11.5 10.3603 11.421 10.2197 11.2803C10.079 11.1397 10 10.9489 10 10.75ZM10 13.25C10 13.0511 10.079 12.8603 10.2197 12.7197C10.3603 12.579 10.5511 12.5 10.75 12.5H13.25C13.4489 12.5 13.6397 12.579 13.7803 12.7197C13.921 12.8603 14 13.0511 14 13.25C14 13.4489 13.921 13.6397 13.7803 13.7803C13.6397 13.921 13.4489 14 13.25 14H10.75C10.5511 14 10.3603 13.921 10.2197 13.7803C10.079 13.6397 10 13.4489 10 13.25Z" fill="#1E1E1E" fill-opacity="0.8"/>
</svg>
