<svg width="22" height="22" viewBox="0 0 22 22" fill="none" xmlns="http://www.w3.org/2000/svg">
<path d="M3.024 0.677C1.745 0.768 0.768 1.745 0.677 3.024C0.585 4.3015 0.5 6.184 0.5 8.75C0.5 11.3165 0.5855 13.1985 0.677 14.4765C0.768 15.755 1.745 16.7315 3.024 16.823C3.5855 16.863 4.264 16.9025 5.0665 16.9335C5.02065 15.7062 4.99848 14.4781 5 13.25C5 10.6835 5.0855 8.8015 5.177 7.524C5.268 6.245 6.245 5.268 7.524 5.177C8.801 5.085 10.6835 5 13.25 5C14.688 5 15.911 5.027 16.9335 5.0665C16.9025 4.264 16.8635 3.5855 16.8235 3.024C16.732 1.745 15.755 0.768 14.476 0.677C13.1985 0.585 11.316 0.5 8.75 0.5C6.1835 0.5 4.3015 0.5855 3.024 0.677Z" fill="#E7E9EC"/>
<path d="M5.177 7.5235C5.268 6.245 6.245 5.2685 7.524 5.177C8.801 5.085 10.6835 5 13.25 5C15.8165 5 17.6985 5.0855 18.976 5.177C20.255 5.268 21.232 6.245 21.323 7.524C21.4145 8.8015 21.5 10.684 21.5 13.25C21.5 15.8165 21.4145 17.6985 21.323 18.9765C21.232 20.255 20.255 21.2315 18.976 21.323C17.6985 21.4145 15.816 21.5 13.25 21.5C10.6835 21.5 8.8015 21.4145 7.5235 21.323C6.245 21.232 5.2685 20.255 5.177 18.976C5.085 17.699 5 15.8165 5 13.25C5 10.6835 5.0855 8.8015 5.177 7.5235Z" fill="#0A2540"/>
<path d="M15 10C15 10.3978 15.1581 10.7794 15.4394 11.0607C15.7207 11.342 16.1022 11.5 16.5 11.5C16.8979 11.5 17.2794 11.342 17.5607 11.0607C17.842 10.7794 18 10.3978 18 10C18 9.60218 17.842 9.22064 17.5607 8.93934C17.2794 8.65804 16.8979 8.5 16.5 8.5C16.1022 8.5 15.7207 8.65804 15.4394 8.93934C15.1581 9.22064 15 9.60218 15 10ZM21.423 17.1945C21.3935 17.8845 21.359 18.4765 21.323 18.976C21.232 20.255 20.255 21.232 18.976 21.323C17.6985 21.4145 15.816 21.5 13.25 21.5C10.6835 21.5 8.80155 21.4145 7.52355 21.323C6.24505 21.232 5.26855 20.255 5.17705 18.976C5.12559 18.2434 5.08675 17.5099 5.06055 16.776C6.83305 15.1125 8.08455 14.157 8.89455 13.6165C9.61455 13.1365 10.497 13.2155 11.166 13.763C11.835 14.3105 12.855 15.2 14.335 16.6155C15.33 15.761 16.0925 15.196 16.6475 14.8255C17.3675 14.3455 18.25 14.4255 18.919 14.9725C19.483 15.4335 20.2955 16.1375 21.423 17.1945Z" fill="#E7E9EC"/>
<path d="M16.737 2.5C16.461 1.488 15.592 0.757 14.5005 0.6785C13.2225 0.5865 11.3325 0.5 8.75 0.5C6.183 0.5 4.301 0.5855 3.0235 0.677C1.745 0.768 0.7675 1.745 0.6765 3.024C0.585 4.3015 0.5 6.184 0.5 8.75C0.5 11.3325 0.587 13.222 0.6785 14.5C0.757 15.5915 1.4885 16.461 2.5 16.7365" stroke="#0A2540" stroke-opacity="0.5" stroke-linecap="round" stroke-linejoin="round"/>
<path d="M5.177 7.5235C5.268 6.245 6.245 5.2685 7.524 5.177C8.801 5.085 10.6835 5 13.25 5C15.8165 5 17.6985 5.0855 18.976 5.177C20.255 5.268 21.232 6.245 21.323 7.524C21.4145 8.8015 21.5 10.684 21.5 13.25C21.5 15.8165 21.4145 17.6985 21.323 18.9765C21.232 20.255 20.255 21.2315 18.976 21.323C17.6985 21.4145 15.816 21.5 13.25 21.5C10.6835 21.5 8.8015 21.4145 7.5235 21.323C6.245 21.232 5.2685 20.255 5.177 18.976C5.085 17.699 5 15.8165 5 13.25C5 10.6835 5.0855 8.8015 5.177 7.5235Z" stroke="#0A2540" stroke-opacity="0.5" stroke-linecap="round" stroke-linejoin="round"/>
<path d="M21.423 17.1945C20.2955 16.1375 19.483 15.4335 18.919 14.9725C18.25 14.425 17.368 14.3455 16.6475 14.826C16.0925 15.196 15.3305 15.761 14.335 16.6155C12.855 15.2 11.835 14.3105 11.166 13.763C10.497 13.2155 9.61505 13.1365 8.89455 13.6165C8.08455 14.1565 6.83305 15.1125 5.06055 16.7755M15 10C15 10.3978 15.1581 10.7794 15.4394 11.0607C15.7207 11.342 16.1022 11.5 16.5 11.5C16.8979 11.5 17.2794 11.342 17.5607 11.0607C17.842 10.7794 18 10.3978 18 10C18 9.60218 17.842 9.22064 17.5607 8.93934C17.2794 8.65804 16.8979 8.5 16.5 8.5C16.1022 8.5 15.7207 8.65804 15.4394 8.93934C15.1581 9.22064 15 9.60218 15 10Z" stroke="#0A2540" stroke-opacity="0.5" stroke-linecap="round" stroke-linejoin="round"/>
</svg>
