<svg width="20" height="20" viewBox="0 0 20 20" fill="none" xmlns="http://www.w3.org/2000/svg">
<path d="M9.90809 11.995H17.7511C18.3478 11.995 18.9201 12.2321 19.3421 12.654C19.764 13.076 20.0011 13.6483 20.0011 14.245V15.15C20.0011 15.6904 19.8843 16.2244 19.6587 16.7154C19.4331 17.2065 19.1041 17.643 18.6941 17.995C17.1281 19.34 14.8881 19.997 11.9981 19.997H11.8191C11.97 19.6934 12.0294 19.3525 11.9902 19.0157C11.9509 18.6789 11.8147 18.3608 11.5981 18.1L11.4871 17.979L9.25709 15.755C9.91721 14.62 10.1489 13.2857 9.90809 11.995ZM4.49809 8.495C5.35295 8.49504 6.19012 8.73857 6.9116 9.19709C7.63308 9.65562 8.20904 10.3102 8.57204 11.0841C8.93505 11.8581 9.07009 12.7194 8.96136 13.5673C8.85263 14.4153 8.50463 15.2147 7.95809 15.872L10.7811 18.686C10.9144 18.8198 10.9923 18.999 10.9992 19.1878C11.0061 19.3766 10.9415 19.561 10.8184 19.7042C10.6952 19.8474 10.5226 19.9389 10.3349 19.9604C10.1473 19.9818 9.9584 19.9317 9.80609 19.82L9.72109 19.748L6.81809 16.852C6.22368 17.2092 5.55475 17.4243 4.86352 17.4803C4.17228 17.5363 3.47745 17.4318 2.83328 17.175C2.1891 16.9181 1.613 16.5158 1.14997 15.9995C0.686935 15.4833 0.349492 14.867 0.163984 14.1987C-0.0215243 13.5305 -0.0500767 12.8284 0.0805556 12.1474C0.211188 11.4663 0.49747 10.8246 0.917051 10.2724C1.33663 9.72024 1.87816 9.27252 2.49935 8.96419C3.12054 8.65587 3.80459 8.49529 4.49809 8.495ZM4.49809 9.995C3.70244 9.995 2.93938 10.3111 2.37677 10.8737C1.81416 11.4363 1.49809 12.1994 1.49809 12.995C1.49809 13.7906 1.81416 14.5537 2.37677 15.1163C2.93938 15.6789 3.70244 15.995 4.49809 15.995C5.29374 15.995 6.0568 15.6789 6.61941 15.1163C7.18202 14.5537 7.49809 13.7906 7.49809 12.995C7.49809 12.1994 7.18202 11.4363 6.61941 10.8737C6.0568 10.3111 5.29374 9.995 4.49809 9.995ZM11.9981 0C12.6547 -9.78424e-09 13.3049 0.129329 13.9115 0.380602C14.5181 0.631876 15.0693 1.00017 15.5336 1.46447C15.9979 1.92876 16.3662 2.47995 16.6175 3.08658C16.8688 3.69321 16.9981 4.34339 16.9981 5C16.9981 5.65661 16.8688 6.30679 16.6175 6.91342C16.3662 7.52004 15.9979 8.07124 15.5336 8.53553C15.0693 8.99983 14.5181 9.36812 13.9115 9.6194C13.3049 9.87067 12.6547 10 11.9981 10C10.672 10 9.40024 9.47322 8.46256 8.53553C7.52488 7.59785 6.99809 6.32608 6.99809 5C6.99809 3.67392 7.52488 2.40215 8.46256 1.46447C9.40024 0.526784 10.672 0 11.9981 0Z" fill="#F7F9FC"/>
</svg>
