<svg width="24" height="24" viewBox="0 0 24 24" fill="none" xmlns="http://www.w3.org/2000/svg">
<path d="M16 10C16 11.0609 15.5786 12.0783 14.8284 12.8284C14.0783 13.5786 13.0609 14 12 14C10.9391 14 9.92172 13.5786 9.17157 12.8284C8.42143 12.0783 8 11.0609 8 10C8 8.93913 8.42143 7.92172 9.17157 7.17157C9.92172 6.42143 10.9391 6 12 6C13.0609 6 14.0783 6.42143 14.8284 7.17157C15.5786 7.92172 16 8.93913 16 10Z" fill="white" fill-opacity="0.6"/>
<path fill-rule="evenodd" clip-rule="evenodd" d="M11.592 21.992C6.2585 21.778 2 17.386 2 12C2 6.477 6.477 2 12 2C17.523 2 22 6.477 22 12C22 17.523 17.523 22 12 22H11.863C11.7723 22 11.682 21.9973 11.592 21.992ZM5.583 18.31C5.50823 18.0953 5.48278 17.8665 5.50854 17.6406C5.5343 17.4147 5.6106 17.1975 5.73179 17.0051C5.85298 16.8128 6.01593 16.6502 6.20856 16.5294C6.40119 16.4086 6.61855 16.3328 6.8445 16.3075C10.7425 15.876 13.2815 15.915 17.1605 16.3165C17.3868 16.3401 17.6046 16.4149 17.7976 16.5354C17.9905 16.6559 18.1534 16.8189 18.2739 17.0119C18.3943 17.2048 18.4691 17.4227 18.4927 17.649C18.5162 17.8753 18.4877 18.1039 18.4095 18.3175C20.0721 16.6355 21.0031 14.365 21 12C21 7.0295 16.9705 3 12 3C7.0295 3 3 7.0295 3 12C3 14.458 3.9855 16.686 5.583 18.31Z" fill="white" fill-opacity="0.6"/>
</svg>
