<svg width="81" height="81" viewBox="0 0 81 81" fill="none" xmlns="http://www.w3.org/2000/svg">
<g filter="url(#filter0_d_595_144)">
<circle cx="40.5" cy="39.5" r="30.5" fill="#F5F7FA"/>
</g>
<path d="M31 18V25.2727H32.8182V27.0909H34.6364V25.2727H38.2727V18H31ZM38.2727 25.2727V27.0909H40.0909V28.9091H36.4545V30.7273H31V38H38.2727V30.7273H43.7273V28.9091H41.9091V27.0909H45.5455V25.2727H47.3636V27.0909H49.1818V25.2727H51V18H43.7273V25.2727H38.2727ZM49.1818 27.0909V28.9091H51V27.0909H49.1818ZM49.1818 28.9091H47.3636V30.7273H49.1818V28.9091ZM49.1818 30.7273V32.5455H51V30.7273H49.1818ZM49.1818 32.5455H47.3636V30.7273H45.5455V32.5455H41V38H42.8182V34.3636H46.4545V36.1818H48.2727V34.3636H49.1818V32.5455ZM46.4545 36.1818H44.6364V38H46.4545V36.1818ZM47.3636 28.9091V27.0909H45.5455V28.9091H47.3636ZM36.4545 28.9091V27.0909H34.6364V28.9091H36.4545ZM32.8182 27.0909H31V28.9091H32.8182V27.0909ZM40.0909 18V21.6364H39.1818V23.4545H40.0909V24.3636H41.9091V21.6364H42.8182V19.8182H41.9091V18H40.0909ZM32.8182 19.8182H36.4545V23.4545H32.8182V19.8182ZM45.5455 19.8182H49.1818V23.4545H45.5455V19.8182ZM33.7273 20.7273V22.5455H35.5455V20.7273H33.7273ZM46.4545 20.7273V22.5455H48.2727V20.7273H46.4545ZM32.8182 32.5455H36.4545V36.1818H32.8182V32.5455ZM33.7273 33.4545V35.2727H35.5455V33.4545H33.7273ZM49.1818 36.1818V38H51V36.1818H49.1818Z" fill="#0A2540"/>
<path d="M26.1055 46.337C26.0799 46.0792 25.9702 45.8789 25.7763 45.7362C25.5824 45.5934 25.3193 45.522 24.9869 45.522C24.7611 45.522 24.5704 45.554 24.4148 45.6179C24.2593 45.6797 24.14 45.766 24.0569 45.8768C23.9759 45.9876 23.9354 46.1133 23.9354 46.2539C23.9312 46.3711 23.9557 46.4734 24.0089 46.5607C24.0643 46.6481 24.14 46.7237 24.2358 46.7876C24.3317 46.8494 24.4425 46.9038 24.5682 46.9506C24.6939 46.9954 24.8282 47.0337 24.9709 47.0657L25.559 47.2063C25.8445 47.2702 26.1066 47.3555 26.3452 47.462C26.5839 47.5685 26.7905 47.6996 26.9652 47.8551C27.14 48.0107 27.2753 48.1939 27.3711 48.4048C27.4691 48.6158 27.5192 48.8576 27.5214 49.1303C27.5192 49.5309 27.4169 49.8782 27.2145 50.1722C27.0142 50.4641 26.7245 50.6911 26.3452 50.853C25.9681 51.0128 25.5132 51.0927 24.9805 51.0927C24.4521 51.0927 23.9919 51.0117 23.5998 50.8498C23.2099 50.6879 22.9052 50.4482 22.6858 50.1307C22.4684 49.8111 22.3544 49.4158 22.3438 48.945H23.6829C23.6978 49.1644 23.7607 49.3477 23.8715 49.4947C23.9844 49.6396 24.1346 49.7493 24.3221 49.8239C24.5118 49.8963 24.7259 49.9325 24.9645 49.9325C25.1989 49.9325 25.4024 49.8984 25.575 49.8303C25.7497 49.7621 25.885 49.6673 25.9809 49.5458C26.0767 49.4244 26.1247 49.2848 26.1247 49.1271C26.1247 48.9801 26.081 48.8565 25.9937 48.7564C25.9084 48.6562 25.7827 48.571 25.6165 48.5007C25.4525 48.4304 25.2511 48.3665 25.0125 48.3089L24.2998 48.13C23.7479 47.9957 23.3122 47.7859 22.9926 47.5004C22.673 47.2148 22.5142 46.8303 22.5164 46.3466C22.5142 45.9503 22.6197 45.604 22.8328 45.3079C23.048 45.0117 23.3431 44.7805 23.7181 44.6143C24.0931 44.4482 24.5192 44.3651 24.9965 44.3651C25.4823 44.3651 25.9063 44.4482 26.2685 44.6143C26.6329 44.7805 26.9162 45.0117 27.1187 45.3079C27.3211 45.604 27.4255 45.9471 27.4319 46.337H26.1055ZM30.6447 51.0959C30.1418 51.0959 29.7093 50.9893 29.3471 50.7763C28.987 50.5611 28.71 50.2628 28.5161 49.8814C28.3244 49.5 28.2285 49.0611 28.2285 48.5646C28.2285 48.0618 28.3254 47.6207 28.5193 47.2415C28.7153 46.8601 28.9934 46.5629 29.3535 46.3498C29.7136 46.1346 30.1418 46.027 30.6383 46.027C31.0665 46.027 31.4415 46.1048 31.7633 46.2603C32.085 46.4158 32.3396 46.6342 32.5271 46.9155C32.7146 47.1967 32.818 47.527 32.8371 47.9062H31.5523C31.5161 47.6612 31.4202 47.4641 31.2647 47.315C31.1113 47.1637 30.9099 47.0881 30.6606 47.0881C30.4497 47.0881 30.2654 47.1456 30.1077 47.2607C29.9522 47.3736 29.8307 47.5387 29.7434 47.756C29.656 47.9734 29.6123 48.2365 29.6123 48.5455C29.6123 48.8587 29.655 49.125 29.7402 49.3445C29.8275 49.5639 29.9501 49.7312 30.1077 49.8462C30.2654 49.9613 30.4497 50.0188 30.6606 50.0188C30.8162 50.0188 30.9557 49.9869 31.0793 49.9229C31.205 49.859 31.3084 49.7663 31.3893 49.6449C31.4724 49.5213 31.5268 49.3732 31.5523 49.2006H32.8371C32.8158 49.5756 32.7136 49.9059 32.5303 50.1914C32.3492 50.4748 32.0989 50.6964 31.7793 50.8562C31.4597 51.016 31.0815 51.0959 30.6447 51.0959ZM35.1087 51.0927C34.7955 51.0927 34.5164 51.0384 34.2714 50.9297C34.0263 50.8189 33.8324 50.6559 33.6897 50.4407C33.5491 50.2234 33.4787 49.9528 33.4787 49.6289C33.4787 49.3562 33.5288 49.1271 33.629 48.9418C33.7291 48.7564 33.8655 48.6072 34.038 48.4943C34.2106 48.3814 34.4066 48.2962 34.6261 48.2386C34.8477 48.1811 35.0799 48.1406 35.3228 48.1172C35.6084 48.0874 35.8385 48.0597 36.0132 48.0341C36.1879 48.0064 36.3147 47.9659 36.3935 47.9126C36.4723 47.8594 36.5118 47.7805 36.5118 47.6761V47.657C36.5118 47.4545 36.4478 47.2979 36.32 47.1871C36.1943 47.0763 36.0153 47.021 35.7831 47.021C35.538 47.021 35.3431 47.0753 35.1982 47.1839C35.0533 47.2905 34.9574 47.4247 34.9106 47.5866L33.6513 47.4844C33.7152 47.1861 33.841 46.9283 34.0285 46.7109C34.216 46.4915 34.4578 46.3232 34.754 46.206C35.0522 46.0866 35.3974 46.027 35.7895 46.027C36.0622 46.027 36.3232 46.0589 36.5725 46.1229C36.8239 46.1868 37.0466 46.2859 37.2405 46.4201C37.4365 46.5543 37.591 46.7269 37.7039 46.9379C37.8168 47.1467 37.8733 47.397 37.8733 47.6889V51H36.5821V50.3192H36.5437C36.4649 50.4727 36.3594 50.608 36.2273 50.7251C36.0952 50.8402 35.9365 50.9308 35.7511 50.9968C35.5657 51.0607 35.3516 51.0927 35.1087 51.0927ZM35.4986 50.1531C35.6989 50.1531 35.8758 50.1136 36.0292 50.0348C36.1826 49.9538 36.303 49.8452 36.3903 49.7088C36.4777 49.5724 36.5214 49.418 36.5214 49.2454V48.7244C36.4787 48.7521 36.4201 48.7777 36.3456 48.8011C36.2731 48.8224 36.1911 48.8427 36.0995 48.8619C36.0079 48.8789 35.9162 48.8949 35.8246 48.9098C35.733 48.9226 35.6499 48.9343 35.5753 48.945C35.4155 48.9684 35.276 49.0057 35.1566 49.0568C35.0373 49.108 34.9446 49.1772 34.8786 49.2646C34.8125 49.3498 34.7795 49.4563 34.7795 49.5842C34.7795 49.7695 34.8466 49.9112 34.9809 50.0092C35.1172 50.1051 35.2898 50.1531 35.4986 50.1531ZM40.2911 48.1619V51H38.9296V46.0909H40.2271V46.957H40.2847C40.3933 46.6715 40.5755 46.4457 40.8312 46.2795C41.0869 46.1112 41.3969 46.027 41.7612 46.027C42.1021 46.027 42.3994 46.1016 42.6529 46.2507C42.9065 46.3999 43.1036 46.6129 43.2442 46.8899C43.3848 47.1648 43.4551 47.4929 43.4551 47.8743V51H42.0936V48.1172C42.0957 47.8168 42.019 47.5824 41.8635 47.4141C41.708 47.2436 41.4938 47.1584 41.2211 47.1584C41.0379 47.1584 40.8759 47.1978 40.7353 47.2766C40.5968 47.3555 40.4881 47.4705 40.4093 47.6218C40.3326 47.771 40.2932 47.951 40.2911 48.1619ZM49.1073 48.7244H50.2834L50.8747 49.4851L51.4564 50.1626L52.5526 51.5369H51.2614L50.5071 50.6101L50.1204 50.0604L49.1073 48.7244ZM52.6517 47.7273C52.6517 48.4411 52.5164 49.0483 52.2458 49.549C51.9773 50.0497 51.6108 50.4322 51.1464 50.6964C50.684 50.9585 50.1641 51.0895 49.5867 51.0895C49.005 51.0895 48.483 50.9574 48.0206 50.6932C47.5583 50.429 47.1929 50.0465 46.9244 49.5458C46.6559 49.0451 46.5217 48.4389 46.5217 47.7273C46.5217 47.0135 46.6559 46.4062 46.9244 45.9055C47.1929 45.4048 47.5583 45.0234 48.0206 44.7614C48.483 44.4972 49.005 44.3651 49.5867 44.3651C50.1641 44.3651 50.684 44.4972 51.1464 44.7614C51.6108 45.0234 51.9773 45.4048 52.2458 45.9055C52.5164 46.4062 52.6517 47.0135 52.6517 47.7273ZM51.2486 47.7273C51.2486 47.2649 51.1794 46.875 51.0409 46.5575C50.9045 46.2401 50.7117 45.9993 50.4624 45.8352C50.2131 45.6712 49.9212 45.5891 49.5867 45.5891C49.2522 45.5891 48.9603 45.6712 48.711 45.8352C48.4617 45.9993 48.2678 46.2401 48.1293 46.5575C47.9929 46.875 47.9248 47.2649 47.9248 47.7273C47.9248 48.1896 47.9929 48.5795 48.1293 48.897C48.2678 49.2145 48.4617 49.4553 48.711 49.6193C48.9603 49.7834 49.2522 49.8654 49.5867 49.8654C49.9212 49.8654 50.2131 49.7834 50.4624 49.6193C50.7117 49.4553 50.9045 49.2145 51.0409 48.897C51.1794 48.5795 51.2486 48.1896 51.2486 47.7273ZM53.6768 51V44.4545H56.2592C56.7535 44.4545 57.1754 44.543 57.5248 44.7198C57.8764 44.8945 58.1438 45.1428 58.327 45.4645C58.5124 45.7841 58.6051 46.1602 58.6051 46.5927C58.6051 47.0273 58.5113 47.4013 58.3238 47.7145C58.1363 48.0256 57.8647 48.2642 57.5088 48.4304C57.1551 48.5966 56.7269 48.6797 56.224 48.6797H54.495V47.5675H56.0003C56.2645 47.5675 56.484 47.5312 56.6587 47.4588C56.8334 47.3864 56.9634 47.2777 57.0486 47.1328C57.136 46.9879 57.1796 46.8079 57.1796 46.5927C57.1796 46.3754 57.136 46.1921 57.0486 46.043C56.9634 45.8938 56.8323 45.7809 56.6555 45.7042C56.4808 45.6254 56.2603 45.5859 55.9939 45.5859H55.0607V51H53.6768ZM57.2116 48.0213L58.8384 51H57.3107L55.7191 48.0213H57.2116ZM35.1503 57.7461H33.7504C33.7248 57.565 33.6726 57.4041 33.5938 57.2635C33.515 57.1207 33.4138 56.9993 33.2902 56.8991C33.1666 56.799 33.0238 56.7223 32.8619 56.669C32.7021 56.6158 32.5285 56.5891 32.341 56.5891C32.0022 56.5891 31.7071 56.6733 31.4557 56.8416C31.2042 57.0078 31.0093 57.2507 30.8708 57.5703C30.7323 57.8878 30.663 58.2734 30.663 58.7273C30.663 59.1939 30.7323 59.5859 30.8708 59.9034C31.0114 60.2209 31.2074 60.4606 31.4589 60.6225C31.7103 60.7844 32.0011 60.8654 32.3314 60.8654C32.5167 60.8654 32.6883 60.8409 32.8459 60.7919C33.0057 60.7429 33.1474 60.6715 33.271 60.5778C33.3946 60.4819 33.4968 60.3658 33.5778 60.2294C33.6609 60.093 33.7184 59.9375 33.7504 59.7628L35.1503 59.7692C35.114 60.0696 35.0235 60.3594 34.8786 60.6385C34.7358 60.9155 34.543 61.1637 34.3001 61.3832C34.0593 61.6005 33.7717 61.7731 33.4372 61.9009C33.1048 62.0266 32.7287 62.0895 32.309 62.0895C31.7252 62.0895 31.2032 61.9574 30.7429 61.6932C30.2848 61.429 29.9226 61.0465 29.6563 60.5458C29.3921 60.0451 29.26 59.4389 29.26 58.7273C29.26 58.0135 29.3942 57.4062 29.6627 56.9055C29.9312 56.4048 30.2955 56.0234 30.7557 55.7614C31.216 55.4972 31.7337 55.3651 32.309 55.3651C32.6883 55.3651 33.0398 55.4183 33.3637 55.5249C33.6897 55.6314 33.9784 55.7869 34.2298 55.9915C34.4812 56.1939 34.6858 56.4421 34.8434 56.7362C35.0032 57.0302 35.1055 57.3668 35.1503 57.7461ZM38.3351 62.0959C37.8386 62.0959 37.4093 61.9904 37.0471 61.7795C36.687 61.5664 36.409 61.2702 36.2129 60.891C36.0169 60.5096 35.9189 60.0675 35.9189 59.5646C35.9189 59.0575 36.0169 58.6143 36.2129 58.2351C36.409 57.8537 36.687 57.5575 37.0471 57.3466C37.4093 57.1335 37.8386 57.027 38.3351 57.027C38.8315 57.027 39.2598 57.1335 39.6199 57.3466C39.9821 57.5575 40.2612 57.8537 40.4573 58.2351C40.6533 58.6143 40.7513 59.0575 40.7513 59.5646C40.7513 60.0675 40.6533 60.5096 40.4573 60.891C40.2612 61.2702 39.9821 61.5664 39.6199 61.7795C39.2598 61.9904 38.8315 62.0959 38.3351 62.0959ZM38.3415 61.0412C38.5673 61.0412 38.7559 60.9773 38.9072 60.8494C39.0585 60.7195 39.1725 60.5426 39.2492 60.3189C39.328 60.0952 39.3674 59.8406 39.3674 59.555C39.3674 59.2695 39.328 59.0149 39.2492 58.7912C39.1725 58.5675 39.0585 58.3906 38.9072 58.2607C38.7559 58.1307 38.5673 58.0657 38.3415 58.0657C38.1135 58.0657 37.9217 58.1307 37.7662 58.2607C37.6128 58.3906 37.4967 58.5675 37.4178 58.7912C37.3411 59.0149 37.3028 59.2695 37.3028 59.555C37.3028 59.8406 37.3411 60.0952 37.4178 60.3189C37.4967 60.5426 37.6128 60.7195 37.7662 60.8494C37.9217 60.9773 38.1135 61.0412 38.3415 61.0412ZM43.4455 62.0799C43.0727 62.0799 42.735 61.984 42.4324 61.7923C42.132 61.5984 41.8933 61.3139 41.7165 60.9389C41.5418 60.5618 41.4544 60.0994 41.4544 59.5518C41.4544 58.9893 41.545 58.5217 41.7261 58.1488C41.9072 57.7738 42.1479 57.4936 42.4484 57.3082C42.7509 57.1207 43.0823 57.027 43.4423 57.027C43.7172 57.027 43.9462 57.0739 44.1295 57.1676C44.3149 57.2592 44.464 57.3743 44.5769 57.5128C44.692 57.6491 44.7793 57.7834 44.839 57.9155H44.8805V55.4545H46.2389V62H44.8965V61.2138H44.839C44.7751 61.3501 44.6845 61.4854 44.5673 61.6197C44.4523 61.7518 44.3021 61.8615 44.1167 61.9489C43.9335 62.0362 43.7097 62.0799 43.4455 62.0799ZM43.877 60.9964C44.0965 60.9964 44.2818 60.9368 44.4331 60.8175C44.5865 60.696 44.7037 60.5266 44.7847 60.3093C44.8678 60.092 44.9093 59.8374 44.9093 59.5455C44.9093 59.2536 44.8688 59 44.7879 58.7848C44.7069 58.5696 44.5897 58.4034 44.4363 58.2862C44.2829 58.169 44.0965 58.1104 43.877 58.1104C43.6533 58.1104 43.4647 58.1712 43.3113 58.2926C43.1579 58.4141 43.0418 58.5824 42.9629 58.7976C42.8841 59.0128 42.8447 59.2621 42.8447 59.5455C42.8447 59.831 42.8841 60.0835 42.9629 60.3029C43.0439 60.5202 43.16 60.6907 43.3113 60.8143C43.4647 60.9357 43.6533 60.9964 43.877 60.9964ZM49.5955 62.0959C49.0905 62.0959 48.6559 61.9936 48.2915 61.7891C47.9293 61.5824 47.6502 61.2905 47.4541 60.9134C47.2581 60.5341 47.1601 60.0856 47.1601 59.5678C47.1601 59.0629 47.2581 58.6197 47.4541 58.2383C47.6502 57.8569 47.9261 57.5597 48.2819 57.3466C48.6399 57.1335 49.0596 57.027 49.5411 57.027C49.865 57.027 50.1665 57.0792 50.4456 57.1836C50.7269 57.2859 50.9719 57.4403 51.1807 57.647C51.3916 57.8537 51.5557 58.1136 51.6729 58.4268C51.7901 58.7379 51.8487 59.1023 51.8487 59.5199V59.8938H47.7034V59.0501H50.5671C50.5671 58.854 50.5245 58.6804 50.4392 58.5291C50.354 58.3778 50.2358 58.2596 50.0845 58.1744C49.9353 58.087 49.7617 58.0433 49.5635 58.0433C49.3568 58.0433 49.1736 58.0913 49.0138 58.1871C48.8561 58.2809 48.7326 58.4077 48.6431 58.5675C48.5536 58.7251 48.5078 58.9009 48.5056 59.0948V59.897C48.5056 60.1399 48.5504 60.3498 48.6399 60.5266C48.7315 60.7035 48.8604 60.8398 49.0266 60.9357C49.1928 61.0316 49.3899 61.0795 49.6179 61.0795C49.7691 61.0795 49.9076 61.0582 50.0333 61.0156C50.159 60.973 50.2666 60.9091 50.3561 60.8239C50.4456 60.7386 50.5138 60.6342 50.5607 60.5107L51.8199 60.5938C51.756 60.8963 51.625 61.1605 51.4268 61.3864C51.2308 61.6101 50.9772 61.7848 50.6661 61.9105C50.3572 62.0341 50.0003 62.0959 49.5955 62.0959Z" fill="#0A2540"/>
<defs>
<filter id="filter0_d_595_144" x="0" y="0" width="81" height="81" filterUnits="userSpaceOnUse" color-interpolation-filters="sRGB">
<feFlood flood-opacity="0" result="BackgroundImageFix"/>
<feColorMatrix in="SourceAlpha" type="matrix" values="0 0 0 0 0 0 0 0 0 0 0 0 0 0 0 0 0 0 127 0" result="hardAlpha"/>
<feOffset dy="1"/>
<feGaussianBlur stdDeviation="5"/>
<feComposite in2="hardAlpha" operator="out"/>
<feColorMatrix type="matrix" values="0 0 0 0 0 0 0 0 0 0 0 0 0 0 0 0 0 0 0.25 0"/>
<feBlend mode="normal" in2="BackgroundImageFix" result="effect1_dropShadow_595_144"/>
<feBlend mode="normal" in="SourceGraphic" in2="effect1_dropShadow_595_144" result="shape"/>
</filter>
</defs>
</svg>
