<svg width="20" height="20" viewBox="0 0 20 20" fill="none" xmlns="http://www.w3.org/2000/svg">
<path d="M19.61 3.39L18.39 4.61C18.47 4.98 18.5 5.38 18.5 5.81V10.61L18.37 10.5C17.59 9.83 16.33 9.83 15.55 10.5L11.39 14.07C10.68 14.68 9.56 14.74 8.78 14.22L3.39 19.61C4.1 19.87 4.91 20 5.81 20H14.19C17.83 20 20 17.83 20 14.19V5.81C20 4.91 19.87 4.1 19.61 3.39ZM18.46 1.54L17.4 2.6C16.68 1.87 15.6 1.5 14.19 1.5H5.81C2.99 1.5 1.5 2.99 1.5 5.81V14.19C1.5 14.95 1.63 15.6 1.85 16.16L5.59 13.65C5.93 13.42 6.32 13.3 6.71 13.29L1.54 18.46C1.14 18.06 0.81 17.58 0.56 17.03C0.19 16.23 0 15.28 0 14.19V5.81C0 2.17 2.17 0 5.81 0H14.19C16.01 0 17.46 0.54 18.46 1.54Z" fill="#EA4235"/>
</svg>
