<svg width="21" height="20" viewBox="0 0 21 20" fill="none" xmlns="http://www.w3.org/2000/svg">
<path d="M18.8999 10.66C18.7396 10.4775 18.6512 10.2429 18.6512 10C18.6512 9.75711 18.7396 9.52251 18.8999 9.34002L20.1799 7.90002C20.3209 7.74269 20.4085 7.54472 20.4301 7.33452C20.4516 7.12433 20.4061 6.9127 20.2999 6.73002L18.2999 3.27002C18.1948 3.08754 18.0348 2.94289 17.8426 2.8567C17.6505 2.77051 17.4361 2.74718 17.2299 2.79002L15.3499 3.17002C15.1107 3.21945 14.8616 3.17961 14.6498 3.05802C14.4379 2.93643 14.2779 2.7415 14.1999 2.51002L13.5899 0.680017C13.5228 0.481396 13.395 0.308882 13.2245 0.186859C13.0541 0.0648361 12.8495 -0.000523977 12.6399 1.71846e-05H8.6399C8.42183 -0.0113649 8.20603 0.0489435 8.02546 0.171731C7.84489 0.294519 7.70948 0.473036 7.6399 0.680017L7.0799 2.51002C7.0019 2.7415 6.84187 2.93643 6.63001 3.05802C6.41815 3.17961 6.16911 3.21945 5.9299 3.17002L3.9999 2.79002C3.80445 2.7624 3.6052 2.79324 3.42724 2.87866C3.24929 2.96407 3.1006 3.10025 2.9999 3.27002L0.999896 6.73002C0.891056 6.91067 0.842118 7.1211 0.860079 7.33124C0.878039 7.54138 0.961979 7.74046 1.0999 7.90002L2.3699 9.34002C2.53022 9.52251 2.61863 9.75711 2.61863 10C2.61863 10.2429 2.53022 10.4775 2.3699 10.66L1.0999 12.1C0.961979 12.2596 0.878039 12.4587 0.860079 12.6688C0.842118 12.8789 0.891056 13.0894 0.999896 13.27L2.9999 16.73C3.10499 16.9125 3.26502 17.0571 3.45715 17.1433C3.64928 17.2295 3.86372 17.2529 4.0699 17.21L5.9499 16.83C6.18911 16.7806 6.43815 16.8204 6.65001 16.942C6.86187 17.0636 7.0219 17.2585 7.0999 17.49L7.7099 19.32C7.77948 19.527 7.91489 19.7055 8.09546 19.8283C8.27603 19.9511 8.49183 20.0114 8.7099 20H12.7099C12.9195 20.0006 13.1241 19.9352 13.2945 19.8132C13.465 19.6912 13.5928 19.5186 13.6599 19.32L14.2699 17.49C14.3479 17.2585 14.5079 17.0636 14.7198 16.942C14.9316 16.8204 15.1807 16.7806 15.4199 16.83L17.2999 17.21C17.5061 17.2529 17.7205 17.2295 17.9126 17.1433C18.1048 17.0571 18.2648 16.9125 18.3699 16.73L20.3699 13.27C20.4761 13.0873 20.5216 12.8757 20.5001 12.6655C20.4785 12.4553 20.3909 12.2573 20.2499 12.1L18.8999 10.66ZM17.4099 12L18.2099 12.9L16.9299 15.12L15.7499 14.88C15.0297 14.7328 14.2805 14.8551 13.6445 15.2238C13.0085 15.5925 12.53 16.1819 12.2999 16.88L11.9199 18H9.3599L8.9999 16.86C8.76975 16.1619 8.29128 15.5725 7.6553 15.2038C7.01932 14.8351 6.27012 14.7128 5.5499 14.86L4.3699 15.1L3.0699 12.89L3.8699 11.99C4.36185 11.44 4.63383 10.7279 4.63383 9.99002C4.63383 9.25208 4.36185 8.54004 3.8699 7.99002L3.0699 7.09002L4.3499 4.89002L5.5299 5.13002C6.25012 5.27724 6.99932 5.1549 7.6353 4.78622C8.27128 4.41753 8.74975 3.82818 8.9799 3.13002L9.3599 2.00002H11.9199L12.2999 3.14002C12.53 3.83818 13.0085 4.42753 13.6445 4.79622C14.2805 5.1649 15.0297 5.28724 15.7499 5.14002L16.9299 4.90002L18.2099 7.12002L17.4099 8.02002C16.9235 8.56878 16.6549 9.2767 16.6549 10.01C16.6549 10.7433 16.9235 11.4513 17.4099 12ZM10.6399 6.00002C9.84877 6.00002 9.07541 6.23461 8.41761 6.67414C7.75982 7.11366 7.24713 7.73838 6.94438 8.46928C6.64163 9.20019 6.56241 10.0045 6.71675 10.7804C6.8711 11.5563 7.25206 12.269 7.81147 12.8284C8.37088 13.3879 9.08361 13.7688 9.85954 13.9232C10.6355 14.0775 11.4397 13.9983 12.1706 13.6955C12.9015 13.3928 13.5262 12.8801 13.9658 12.2223C14.4053 11.5645 14.6399 10.7911 14.6399 10C14.6399 8.93915 14.2185 7.92174 13.4683 7.17159C12.7182 6.42144 11.7008 6.00002 10.6399 6.00002ZM10.6399 12C10.2443 12 9.85765 11.8827 9.52876 11.663C9.19986 11.4432 8.94351 11.1308 8.79214 10.7654C8.64076 10.3999 8.60116 9.9978 8.67833 9.60984C8.7555 9.22187 8.94598 8.86551 9.22568 8.5858C9.50539 8.3061 9.86175 8.11562 10.2497 8.03845C10.6377 7.96128 11.0398 8.00088 11.4053 8.15226C11.7707 8.30363 12.0831 8.55998 12.3028 8.88888C12.5226 9.21778 12.6399 9.60445 12.6399 10C12.6399 10.5304 12.4292 11.0392 12.0541 11.4142C11.679 11.7893 11.1703 12 10.6399 12Z" fill="#1E1E1E"/>
</svg>
