<svg width="19" height="19" viewBox="0 0 19 19" fill="none" xmlns="http://www.w3.org/2000/svg">
<g clip-path="url(#clip0_366_1319)">
<path d="M0.40558 9.38631C0.405099 10.9827 0.825489 12.5414 1.62481 13.9153L0.329102 18.6095L5.17052 17.3499C6.50432 18.0712 8.00618 18.452 9.53459 18.4524H9.53863C14.5718 18.4524 18.6689 14.3885 18.671 9.39347C18.672 6.97296 17.7229 4.69697 15.9985 2.98464C14.2744 1.27239 11.9814 0.328931 9.53824 0.327881C4.50453 0.327881 0.407696 4.39152 0.40558 9.38631Z" fill="url(#paint0_linear_366_1319)"/>
<path d="M0.0794605 9.38335C0.0788833 11.0372 0.514377 12.6517 1.34217 14.0747L0 18.9372L5.01505 17.6324C6.39686 18.38 7.95259 18.7742 9.53574 18.7747H9.53978C14.7535 18.7747 18.9978 14.5647 19 9.39089C19.0009 6.88343 18.0176 4.52564 16.2317 2.75192C14.4455 0.978397 12.0704 0.00104999 9.53978 0C4.32511 0 0.0815769 4.2094 0.0794605 9.38335ZM3.06596 13.8297L2.87876 13.5347C2.09156 12.2928 1.67608 10.8576 1.67665 9.38393C1.67839 5.08356 5.20553 1.58491 9.54276 1.58491C11.6431 1.58577 13.6171 2.39817 15.1017 3.87226C16.5864 5.34644 17.4033 7.3061 17.4027 9.39032C17.4008 13.6908 13.8735 17.1899 9.53978 17.1899H9.5367C8.12555 17.1891 6.74163 16.8132 5.53462 16.1026L5.24737 15.9336L2.27136 16.7078L3.06596 13.8297Z" fill="url(#paint1_linear_366_1319)"/>
<path d="M7.1755 5.46055C6.9984 5.06996 6.81206 5.06213 6.64362 5.05526C6.50576 5.04943 6.34809 5.04981 6.19062 5.04981C6.03295 5.04981 5.77686 5.10861 5.56032 5.34324C5.34358 5.57796 4.73291 6.14533 4.73291 7.29927C4.73291 8.4533 5.58004 9.56839 5.69808 9.72503C5.8163 9.88138 7.33336 12.3252 9.73594 13.2653C11.7327 14.0466 12.1391 13.8912 12.5725 13.852C13.0058 13.813 13.971 13.2849 14.1679 12.7372C14.3649 12.1895 14.3649 11.7201 14.3059 11.6221C14.2468 11.5243 14.0891 11.4656 13.8528 11.3484C13.6163 11.2311 12.4542 10.6636 12.2376 10.5853C12.0209 10.5072 11.8633 10.4681 11.7056 10.7029C11.548 10.9375 11.0953 11.4656 10.9574 11.6221C10.8195 11.7788 10.6816 11.7984 10.4452 11.6811C10.2088 11.5634 9.44744 11.3159 8.54432 10.517C7.84158 9.89531 7.36723 9.12758 7.22928 8.89277C7.09142 8.65824 7.21456 8.53119 7.33308 8.41426C7.43928 8.30917 7.56953 8.1404 7.68776 8.00352C7.8057 7.86655 7.84505 7.7688 7.92384 7.61236C8.00272 7.45581 7.96328 7.31884 7.90421 7.20152C7.84505 7.08421 7.3857 5.92436 7.1755 5.46055Z" fill="white"/>
</g>
<defs>
<linearGradient id="paint0_linear_366_1319" x1="917.424" y1="1828.49" x2="917.424" y2="0.328753" gradientUnits="userSpaceOnUse">
<stop stop-color="#1FAF38"/>
<stop offset="1" stop-color="#60D669"/>
</linearGradient>
<linearGradient id="paint1_linear_366_1319" x1="950.001" y1="1893.72" x2="950.001" y2="-0.00248324" gradientUnits="userSpaceOnUse">
<stop stop-color="#F9F9F9"/>
<stop offset="1" stop-color="white"/>
</linearGradient>
<clipPath id="clip0_366_1319">
<rect width="19" height="19" fill="white"/>
</clipPath>
</defs>
</svg>
